<svg width="76" height="72" viewBox="0 0 76 72" fill="none" xmlns="http://www.w3.org/2000/svg">
<rect x="0.556882" y="0.209225" width="75.2336" height="71.1831" rx="18.3507" fill="#006E53"/>
<path fill-rule="evenodd" clip-rule="evenodd" d="M30.5194 51.8841C31.0506 51.8841 31.4389 51.9966 31.684 52.2216C31.9292 52.4466 32.052 52.7966 32.0522 53.2715V55.817H31.2554V53.3792C31.2554 52.8425 30.9544 52.5741 30.3525 52.5741C30.0925 52.5719 29.8372 52.6437 29.6165 52.7812C29.6547 52.9418 29.6726 53.1065 29.6699 53.2715V55.817H28.8731V53.3792C28.8731 52.8425 28.5721 52.5741 27.9702 52.5741C27.6955 52.5743 27.4231 52.6237 27.1658 52.7199V55.817H26.3694V52.2829C26.6331 52.1518 26.9122 52.0544 27.2002 51.993C27.5074 51.9214 27.8216 51.8841 28.1371 51.882C28.6341 51.882 29.0034 51.9786 29.245 52.1719C29.6429 51.9818 30.0784 51.8835 30.5194 51.8841ZM34.7825 55.9338C34.175 55.9338 33.7185 55.76 33.4128 55.4124C33.1071 55.0648 32.9542 54.5588 32.9539 53.8945C32.9539 52.5501 33.5613 51.878 34.7763 51.8783C35.3884 51.8783 35.8487 52.0507 36.1571 52.3956C36.4655 52.7404 36.6199 53.2401 36.6201 53.8945C36.6201 54.5483 36.4608 55.0516 36.1422 55.4045C35.8236 55.7574 35.3703 55.9338 34.7825 55.9338ZM34.7746 55.2513C35.4729 55.2513 35.8219 54.799 35.8216 53.8945C35.8216 53.4447 35.7388 53.1086 35.5731 52.8864C35.4075 52.6641 35.1418 52.5528 34.7763 52.5525C34.4071 52.5525 34.1428 52.6663 33.9835 52.8938C33.8242 53.1213 33.7446 53.4549 33.7446 53.8945C33.7446 54.3338 33.8267 54.6698 33.991 54.9025C34.1553 55.1353 34.4165 55.251 34.7746 55.2496V55.2513ZM39.2804 51.8857C39.847 51.8857 40.2769 52.0569 40.5701 52.3993C40.8633 52.7417 41.0104 53.2267 41.0112 53.8543C41.0112 54.6108 40.8354 55.1462 40.484 55.4604C40.1325 55.7747 39.6857 55.9325 39.1437 55.9338C38.0561 55.9338 37.5123 55.6425 37.5123 55.0599V50.4274H38.3017V52.1235C38.4604 52.0476 38.6271 51.9897 38.7987 51.9507C38.9562 51.9103 39.1178 51.8879 39.2804 51.8841V51.8857ZM39.0828 55.236C39.497 55.236 39.7869 55.1158 39.9526 54.8756C40.1182 54.6354 40.2011 54.3057 40.2011 53.8866C40.2011 53.4575 40.1138 53.1304 39.9393 52.9054C39.7648 52.6804 39.5057 52.568 39.1619 52.5683C39.0122 52.5693 38.8631 52.5885 38.7179 52.6254C38.5726 52.6605 38.4332 52.7163 38.3038 52.7911V54.862C38.3024 55.1105 38.5621 55.2346 39.0828 55.2343V55.236ZM41.9116 50.6283H42.7615V51.3568H41.9116V50.6283ZM41.9344 51.993H42.7313L42.7387 55.8187H41.9344V51.993ZM43.8603 55.8187V50.5119H44.6497V55.817L43.8603 55.8187ZM47.319 51.875C47.911 51.875 48.3448 52.0682 48.6204 52.4548C48.8959 52.8414 49.0312 53.3818 49.0262 54.0763H46.354C46.3797 54.4546 46.4901 54.7421 46.6853 54.939C46.8806 55.1359 47.1575 55.2342 47.5162 55.2339C47.9459 55.2343 48.3687 55.1262 48.7454 54.9195V55.6708C48.3509 55.8462 47.8989 55.9338 47.3894 55.9338C46.8179 55.9338 46.3689 55.7588 46.0426 55.4087C45.7162 55.0586 45.5531 54.5615 45.5534 53.9176C45.5534 53.2583 45.7076 52.7537 46.016 52.4039C46.3245 52.054 46.7588 51.8777 47.319 51.875ZM47.2963 52.5376C47.0281 52.5376 46.8183 52.6093 46.6667 52.7526C46.5151 52.8959 46.4164 53.1386 46.3706 53.4807H48.2145C48.1789 53.1535 48.0877 52.9147 47.9411 52.7642C47.7945 52.6137 47.5795 52.5382 47.2963 52.5376ZM39.6858 20.9968C38.807 20.7795 38.1305 20.6707 37.6564 20.6704C34.1198 20.6704 31.2525 23.5282 31.2525 27.0524C31.2525 30.5766 34.121 33.4348 37.6564 33.4348C41.1918 33.4348 44.0607 30.577 44.0607 27.0524C44.061 26.5375 43.999 26.0245 43.876 25.5245L48.9674 24.1532C49.3799 25.7211 49.4579 27.3583 49.1963 28.9583C48.9348 30.5584 48.3397 32.0855 47.4495 33.4406L39.0186 49.071H31.2082L36.7581 38.841C36.7883 38.7846 36.6993 38.6604 36.6247 38.6538C30.6942 38.1153 26.0488 33.1453 26.0488 27.0946C26.0488 20.6837 31.2632 15.4871 37.6962 15.4871C38.8738 15.4858 40.0448 15.6627 41.1694 16.0118L39.6858 20.9968Z" fill="white"/>
<path d="M37.6195 30.5622C39.5581 30.5622 41.1296 28.9907 41.1296 27.0521C41.1296 25.1135 39.5581 23.542 37.6195 23.542C35.6809 23.542 34.1094 25.1135 34.1094 27.0521C34.1094 28.9907 35.6809 30.5622 37.6195 30.5622Z" fill="#D6E806"/>
<path d="M48.0703 22.984C46.9763 20.2007 44.8251 17.9635 42.0867 16.7615M43.6821 24.6593C43.074 23.1371 41.9019 21.9082 40.4102 21.2287L43.6821 24.6593ZM45.9162 23.7017C45.0573 21.5905 43.4334 19.8811 41.369 18.9152L45.9162 23.7017Z" stroke="#D6E806" stroke-width="0.797776" stroke-linecap="round"/>
<rect x="0.556882" y="0.209225" width="75.2336" height="71.1831" rx="18.3507" stroke="#BDBDBD" stroke-width="0.418451"/>
</svg>
