<svg width="77" height="72" viewBox="0 0 77 72" fill="none" xmlns="http://www.w3.org/2000/svg">
<rect x="0.992428" y="0.209225" width="75.2336" height="71.1831" rx="18.3507" fill="#E20010"/>
<path d="M43.0199 15.3555C44.3908 15.3745 45.6988 15.6346 46.9201 16.2559C47.997 16.8071 48.875 17.5779 49.4743 18.6403C49.8638 19.3416 50.1193 20.1093 50.2277 20.9041C50.4505 22.4299 50.2252 23.906 49.722 25.3494C49.4263 26.196 49.0171 26.99 48.5739 27.7698C47.671 29.3574 46.5109 30.7332 45.1616 31.953C43.4304 33.5194 41.532 34.8904 39.5007 36.0413C38.7137 36.4857 37.8978 36.8588 37.0202 37.0871C36.4826 37.2323 35.9274 37.3025 35.3706 37.2958C34.6375 37.2809 34.0638 36.9471 33.6178 36.3846C33.2059 35.8798 32.9936 35.2414 33.0214 34.5904C33.0262 34.4093 33.0524 34.2295 33.0992 34.0545C33.3647 33.1114 33.7255 32.2081 34.2647 31.3843C34.6768 30.7552 35.168 30.1965 35.8104 29.7968C36.5249 29.352 37.3014 29.1619 38.1414 29.3454C38.404 29.4069 38.6511 29.5218 38.8674 29.6829C39.4203 30.078 39.3913 30.698 39.1258 31.094C38.8984 31.4381 38.6441 31.7637 38.3654 32.0677C37.8933 32.5763 37.3917 33.0572 36.9022 33.5492C36.4689 33.9845 36.0618 34.4413 35.7317 34.9619C35.5607 35.232 35.4029 35.5074 35.3556 35.8317C35.296 36.2384 35.5072 36.5155 35.9177 36.5536C36.13 36.5709 36.3438 36.5495 36.5485 36.4902C37.1792 36.3159 37.7649 36.0346 38.3402 35.7315C39.2273 35.2622 40.0461 34.6886 40.8442 34.0835C41.8118 33.35 42.7523 32.585 43.6192 31.7343C44.6066 30.7664 45.4867 29.7144 46.1601 28.5004C46.6522 27.6141 47.0146 26.6781 47.1757 25.6741C47.3182 24.7899 47.2386 23.9284 46.829 23.1166C46.6318 22.7154 46.3232 22.3794 45.9402 22.1487C45.7634 22.0422 45.5683 21.9695 45.3649 21.9342C44.6248 21.8029 43.9087 21.9106 43.205 22.1454C42.4715 22.3906 41.791 22.7484 41.1296 23.1394C39.6941 23.9909 38.2569 24.8421 36.8889 25.8009C36.203 26.2813 35.5383 26.7924 34.8661 27.2919C34.2589 27.7433 33.6559 28.2002 32.9924 28.5692C32.4539 28.8758 31.8712 29.097 31.2649 29.2248C30.5136 29.3773 29.8211 29.2356 29.1849 28.8272C28.5247 28.4035 28.0625 27.822 27.8596 27.0525C27.7303 26.5667 27.7813 26.085 27.8927 25.6054C28.0555 24.9013 28.3644 24.2635 28.7496 23.6588C29.7022 22.1653 30.9 20.8983 32.2928 19.8153C34.3571 18.2104 36.6284 16.9745 39.0853 16.0803C40.3466 15.6189 41.6769 15.3738 43.0199 15.3555Z" fill="white"/>
<path d="M26.0362 49.5017C26.0291 49.0329 25.9757 48.6113 25.7048 48.2456C25.5729 48.0688 25.3903 47.9365 25.1813 47.8662C24.6429 47.6732 24.0945 47.696 23.5598 47.8612C23.1312 47.9937 22.7178 48.1743 22.2983 48.3354C22.2154 48.3661 22.14 48.4054 22.0398 48.4502C21.8423 47.9602 21.648 47.4847 21.4446 46.9877C21.7391 46.8481 22.0166 46.7057 22.3028 46.5835C22.9622 46.3014 23.646 46.108 24.365 46.0645C25.084 46.021 25.7935 46.0592 26.4478 46.4079C27.188 46.7997 27.7222 47.3654 27.9459 48.1888C27.9782 48.2966 27.9975 48.4078 28.0035 48.5202C28.032 49.5891 28.0706 50.6581 28.0751 51.7271C28.078 52.4577 28.03 53.1887 28.0084 53.9197C28.0046 54.0199 27.9629 54.115 27.8916 54.1856C27.3801 54.7489 26.7543 55.1382 26.0453 55.3995C25.2849 55.677 24.4752 55.7933 23.6675 55.7412C22.922 55.6998 22.2784 55.3946 21.7342 54.888C21.1899 54.3815 20.8097 53.7698 20.7037 53.0201C20.5587 51.9934 20.8549 51.1025 21.5929 50.3694C22.0676 49.8981 22.6524 49.6546 23.3113 49.5684C24.0403 49.4736 24.7717 49.4988 25.5031 49.5009L26.0362 49.5017ZM25.9405 51.1709C25.8975 51.1624 25.8541 51.1564 25.8104 51.153C25.5619 51.1481 25.3105 51.1394 25.0608 51.1431C24.7613 51.1477 24.4606 51.1489 24.1629 51.1771C23.8551 51.2065 23.5565 51.2963 23.3179 51.5018C22.922 51.8431 22.8044 52.2887 22.9009 52.7911C23.021 53.4124 23.3681 53.8464 23.9868 54.0311C24.3059 54.1266 24.6437 54.1408 24.9697 54.0725C25.2726 54.0171 25.5552 53.8815 25.7881 53.6799C25.8275 53.6493 25.8599 53.6107 25.8831 53.5665C25.9063 53.5224 25.9198 53.4738 25.9227 53.424C25.9322 53.2057 25.9604 52.9878 25.962 52.7696C25.9653 52.2697 25.9579 51.7697 25.9537 51.2698C25.9513 51.2366 25.9468 51.2036 25.9405 51.1709Z" fill="white"/>
<path d="M50.9474 51.1294C49.1706 51.1294 47.4269 51.0913 45.6588 51.1377C45.6679 51.2619 45.6733 51.3796 45.6845 51.4943C45.73 51.9635 45.8311 52.4195 46.0295 52.8499C46.1837 53.2009 46.4232 53.5078 46.7261 53.7428C47.2066 54.1077 47.7549 54.1673 48.3302 54.0932C48.8057 54.0319 49.2484 53.858 49.6899 53.6828C49.8925 53.6028 50.0933 53.5171 50.3112 53.428C50.5183 53.8613 50.7212 54.287 50.9325 54.7252C50.8935 54.7534 50.8571 54.7849 50.8165 54.8081C49.955 55.3192 49.0298 55.6484 48.0304 55.7354C47.1192 55.8145 46.2494 55.665 45.4625 55.1609C44.9266 54.8176 44.5513 54.3326 44.2374 53.79C43.8507 53.115 43.6166 52.3635 43.5515 51.5883C43.4201 50.1749 43.7202 48.8589 44.4519 47.6404C44.9622 46.7934 45.7238 46.3333 46.6773 46.1747C47.5536 46.0206 48.4564 46.1708 49.2356 46.6004C49.6721 46.8369 49.9761 47.2093 50.2267 47.6267C50.558 48.1772 50.7324 48.7839 50.8161 49.4126C50.884 49.9196 50.9055 50.4328 50.9461 50.9451C50.9511 50.9977 50.9474 51.0524 50.9474 51.1294ZM48.7937 49.5203C48.6905 49.0478 48.6201 48.5648 48.3108 48.1643C48.1556 47.9653 47.9377 47.8246 47.6924 47.7651C47.0401 47.5924 46.3844 47.8931 46.104 48.5106C46.0038 48.7305 45.945 48.9695 45.8721 49.201C45.8394 49.3058 45.8183 49.4147 45.7922 49.5203C45.9674 49.5667 48.6143 49.5688 48.7945 49.5216L48.7937 49.5203Z" fill="white"/>
<path d="M39.2913 43.9108L41.4114 43.5828V46.1867C41.8819 46.2148 42.33 46.1842 42.7807 46.2326V47.8367C42.3251 47.8442 41.879 47.8305 41.4139 47.8587C41.4139 47.949 41.4139 48.0165 41.4139 48.084C41.41 49.628 41.4067 51.1722 41.404 52.7165C41.404 52.9596 41.4234 53.2031 41.4454 53.4454C41.4802 53.8182 41.6868 54.0547 42.048 54.1454C42.2472 54.1959 42.4518 54.2245 42.6539 54.263L42.8569 54.3044V55.6658C42.8341 55.6771 42.8098 55.6852 42.7848 55.6898C42.183 55.7168 41.5837 55.701 41.0018 55.5242C40.4336 55.3527 39.9597 55.0421 39.6383 54.5301C39.4557 54.2402 39.3629 53.9143 39.3227 53.5776C39.2985 53.3667 39.2866 53.1545 39.2871 52.9422C39.2871 50.0099 39.2888 47.0778 39.2921 44.146L39.2913 43.9108Z" fill="white"/>
<path d="M52.114 43.9122L54.1641 43.5569V43.8398C54.1641 46.5029 54.1652 49.166 54.1674 51.8291C54.1674 52.3166 54.1716 52.8041 54.1753 53.292C54.1786 53.7733 54.3542 54.0184 54.8139 54.1618C54.9702 54.2049 55.1288 54.239 55.289 54.2636C55.3867 54.2819 55.4857 54.2906 55.6046 54.3051V55.6958C55.5935 55.705 55.5805 55.7114 55.5665 55.7145C54.9842 55.7381 54.4043 55.7286 53.8381 55.5629C53.4951 55.4641 53.1757 55.2968 52.8992 55.0709C52.3844 54.6496 52.1748 54.0851 52.121 53.4485C52.1053 53.2622 52.1073 53.0737 52.1077 52.8865C52.1077 49.9732 52.1098 47.0602 52.114 44.1475V43.9122Z" fill="white"/>
<path d="M35.1697 55.5731H33.0989C33.0964 55.4866 33.0922 55.4075 33.0918 55.3292C33.0896 54.085 33.0878 52.8408 33.0864 51.5967C33.0839 50.6027 33.0777 49.6086 33.0781 48.6146C33.0788 48.4344 33.0926 48.2544 33.1196 48.0762C33.1502 47.8729 33.2567 47.7035 33.4045 47.5606C34.2179 46.7687 35.1925 46.294 36.3037 46.0894C37.0001 45.9617 37.7139 45.9607 38.4106 46.0865C38.4475 46.0932 38.4843 46.1014 38.5204 46.1106C38.5382 46.1151 38.5552 46.1238 38.5895 46.1371C38.3543 46.7351 38.0677 47.3067 37.7976 47.8716C37.475 47.8716 37.1693 47.8621 36.8645 47.8737C36.3381 47.8912 35.8213 48.0199 35.3482 48.2514C35.214 48.3173 35.1639 48.3993 35.1643 48.5538C35.1701 50.8179 35.1715 53.082 35.1685 55.3462L35.1697 55.5731Z" fill="white"/>
<path d="M31.5725 46.2744C31.5944 49.3774 31.5704 52.4621 31.5903 55.5659H29.5637C29.5588 55.491 29.5488 55.4127 29.5488 55.3344C29.5488 53.3837 29.5488 51.4326 29.5488 49.4813C29.5488 48.5871 29.5563 47.693 29.56 46.7988C29.56 46.7308 29.56 46.6629 29.56 46.5776L31.5725 46.2744Z" fill="white"/>
<path d="M30.4736 45.3611C29.4841 45.3586 28.8645 44.3737 29.2749 43.4439C29.5272 42.8736 29.9604 42.657 30.5854 42.6607C31.4228 42.6677 32.0437 43.5006 31.8441 44.3145C31.6846 44.9647 31.1627 45.3627 30.4736 45.3611Z" fill="white"/>
<rect x="0.992428" y="0.209225" width="75.2336" height="71.1831" rx="18.3507" stroke="#BDBDBD" stroke-width="0.418451"/>
</svg>
