<svg width="36" height="36" viewBox="0 0 36 36" fill="none" xmlns="http://www.w3.org/2000/svg">
<rect width="36" height="36" rx="12" fill="#2673D1"/>
<path d="M23.1641 6.51367H11.8359C10.9741 6.51367 10.2734 7.21436 10.2734 8.07617V26.8262C10.2734 27.688 10.9741 28.3887 11.8359 28.3887H23.1641C24.0259 28.3887 24.7266 27.688 24.7266 26.8262V8.07617C24.7266 7.21436 24.0259 6.51367 23.1641 6.51367ZM17.5 25.1172C16.9604 25.1172 16.5234 24.6802 16.5234 24.1406C16.5234 23.6011 16.9604 23.1641 17.5 23.1641C18.0396 23.1641 18.4766 23.6011 18.4766 24.1406C18.4766 24.6802 18.0396 25.1172 17.5 25.1172Z" fill="white"/>
</svg>
