<svg width="314" height="42" viewBox="0 0 314 42" fill="none" xmlns="http://www.w3.org/2000/svg">
<path d="M311.768 34.2665C312.22 34.1187 312.467 33.6319 312.32 33.1792L309.912 25.8016C309.764 25.3489 309.277 25.1017 308.824 25.2495C308.372 25.3973 308.124 25.8841 308.272 26.3368L310.413 32.8946L303.855 35.0352C303.402 35.1829 303.155 35.6697 303.303 36.1225C303.451 36.5752 303.937 36.8224 304.39 36.6746L311.768 34.2665ZM0.285811 34.282C0.960872 34.4551 1.6329 34.6241 2.30193 34.7891L2.71483 33.1147C2.05099 32.951 1.38413 32.7833 0.714189 32.6115L0.285811 34.282ZM6.28041 35.7309C7.59478 36.029 8.89745 36.3113 10.1887 36.5782L10.5378 34.8893C9.25743 34.6246 7.96552 34.3447 6.66179 34.0491L6.28041 35.7309ZM14.1565 37.357C15.5092 37.6083 16.8493 37.8426 18.177 38.0603L18.4561 36.3585C17.1404 36.1427 15.8123 35.9106 14.4715 35.6615L14.1565 37.357ZM22.1239 38.6644C23.4833 38.8575 24.8298 39.033 26.1636 39.1917L26.3673 37.4792C25.0465 37.3221 23.713 37.1482 22.3664 36.9569L22.1239 38.6644ZM30.199 39.6242C31.535 39.7516 32.8582 39.8618 34.1693 39.9557L34.2923 38.2355C32.9949 38.1426 31.6852 38.0335 30.3627 37.9074L30.199 39.6242ZM38.2703 40.1978C39.624 40.2607 40.9646 40.306 42.2926 40.3344L42.3295 38.6102C41.0159 38.5821 39.6896 38.5373 38.3503 38.4751L38.2703 40.1978ZM46.3435 40.369C47.7102 40.3631 49.0635 40.3394 50.4041 40.2985L50.3516 38.5747C49.026 38.6151 47.6877 38.6386 46.336 38.6445L46.3435 40.369ZM54.4137 40.1242C55.7847 40.0466 57.1424 39.9515 58.4875 39.8395L58.3444 38.1208C57.0144 38.2316 55.6719 38.3257 54.3163 38.4023L54.4137 40.1242ZM62.4855 39.4542C63.8461 39.3052 65.194 39.1393 66.5298 38.9576L66.2973 37.2487C64.9762 37.4285 63.6432 37.5925 62.2978 37.7398L62.4855 39.4542ZM70.5206 38.3628C71.8635 38.1452 73.1946 37.9121 74.5147 37.6644L74.1967 35.9694C72.8904 36.2145 71.5733 36.4451 70.2448 36.6604L70.5206 38.3628ZM78.4806 36.8708C79.8064 36.5891 81.1214 36.2934 82.4264 35.9847L82.0295 34.3064C80.7368 34.6121 79.4347 34.905 78.1222 35.1839L78.4806 36.8708ZM86.3554 35.0102C87.6641 34.6707 88.9633 34.319 90.2539 33.9564L89.7874 32.2961C88.5074 32.6558 87.2194 33.0044 85.9224 33.3409L86.3554 35.0102ZM94.14 32.8249C95.4323 32.4358 96.7166 32.0367 97.9939 31.6287L97.4691 29.9859C96.2005 30.3911 94.9253 30.7874 93.6428 31.1735L94.14 32.8249ZM101.837 30.3689C103.115 29.9398 104.386 29.503 105.652 29.0597L105.082 27.4321C103.822 27.8731 102.558 28.3075 101.288 28.734L101.837 30.3689ZM109.457 27.7034C110.722 27.2451 111.983 26.7814 113.241 26.3138L112.64 24.6974C111.386 25.1635 110.13 25.6255 108.87 26.082L109.457 27.7034ZM117.018 24.8949C118.275 24.4185 119.529 23.9395 120.782 23.4591L120.164 21.8488C118.913 22.3287 117.661 22.8069 116.407 23.2823L117.018 24.8949ZM124.542 22.0124C125.795 21.5296 127.047 21.047 128.299 20.5654L127.68 18.9557C126.427 19.4376 125.175 19.9206 123.922 20.4032L124.542 22.0124ZM132.057 19.1263C133.31 18.649 134.564 18.1742 135.82 17.7033L135.215 16.0885C133.955 16.5607 132.698 17.0365 131.443 17.5147L132.057 19.1263ZM139.588 16.307C140.846 15.8467 142.106 15.3916 143.371 14.9428L142.795 13.3175C141.524 13.7684 140.258 14.2255 138.995 14.6875L139.588 16.307ZM147.16 13.6237C148.426 13.1918 149.697 12.7674 150.974 12.3519L150.44 10.7119C149.155 11.1302 147.876 11.5571 146.603 11.9915L147.16 13.6237ZM154.792 11.143C156.07 10.75 157.354 10.367 158.647 9.995L158.169 8.33771C156.867 8.71271 155.572 9.09875 154.285 9.49459L154.792 11.143ZM162.498 8.92679C163.789 8.58243 165.09 8.25005 166.399 7.93082L165.99 6.25531C164.669 6.57758 163.357 6.91301 162.054 7.26042L162.498 8.92679ZM170.282 7.03006C171.586 6.7432 172.9 6.47011 174.224 6.21188L173.894 4.51917C172.556 4.78011 171.228 5.05601 169.911 5.34575L170.282 7.03006ZM178.141 5.498C179.455 5.27554 180.779 5.06824 182.115 4.87715L181.87 3.16994C180.52 3.36317 179.181 3.57276 177.853 3.79764L178.141 5.498ZM186.068 4.36406C187.385 4.21052 188.715 4.07314 190.057 3.95286L189.903 2.23516C188.546 2.35683 187.201 2.49578 185.868 2.65106L186.068 4.36406ZM194.048 3.64881C195.364 3.56623 196.693 3.50034 198.034 3.45198L197.972 1.72852C196.615 1.77743 195.272 1.84407 193.94 1.92761L194.048 3.64881ZM202.071 3.36059C203.379 3.34846 204.698 3.35312 206.031 3.3753L206.06 1.65095C204.712 1.62852 203.378 1.62381 202.055 1.63608L202.071 3.36059ZM210.069 3.49514C211.379 3.55104 212.703 3.62392 214.04 3.71446L214.156 1.99382C212.805 1.90231 211.467 1.82863 210.142 1.77212L210.069 3.49514ZM218.026 4.03384C219.357 4.15688 220.702 4.2974 222.06 4.45602L222.26 2.74308C220.888 2.58286 219.53 2.4409 218.185 2.31657L218.026 4.03384ZM225.972 4.95826C227.288 5.1424 228.617 5.34345 229.959 5.56193L230.236 3.85976C228.881 3.63922 227.54 3.43624 226.211 3.25031L225.972 4.95826ZM233.92 6.25103C235.204 6.48859 236.5 6.74198 237.808 7.01165L238.156 5.3226C236.837 5.05057 235.529 4.79493 234.234 4.55522L233.92 6.25103ZM241.768 7.86996C243.056 8.16249 244.355 8.47064 245.667 8.79481L246.081 7.12063C244.759 6.79386 243.449 6.48319 242.15 6.18822L241.768 7.86996ZM249.506 9.78098C250.797 10.1249 252.1 10.4843 253.414 10.8593L253.887 9.20093C252.564 8.82314 251.251 8.46112 249.95 8.11452L249.506 9.78098ZM257.279 11.9975C258.525 12.3757 259.781 12.768 261.049 13.1745L261.575 11.5323C260.3 11.1231 259.035 10.7282 257.78 10.3472L257.279 11.9975ZM264.882 14.437C266.162 14.8696 267.453 15.3166 268.755 15.7782L269.332 14.1527C268.022 13.6883 266.723 13.2385 265.434 12.8032L264.882 14.437ZM272.439 17.1124C273.676 17.5701 274.923 18.0409 276.18 18.525L276.8 16.9156C275.536 16.4288 274.281 15.9553 273.037 15.4949L272.439 17.1124ZM279.98 20.0173C281.21 20.5095 282.45 21.0143 283.699 21.5318L284.359 19.9386C283.104 19.4184 281.858 18.911 280.621 18.4161L279.98 20.0173ZM287.335 23.0636C288.557 23.5862 289.787 24.1208 291.026 24.6677L291.722 23.0899C290.477 22.5405 289.241 22.0033 288.014 21.4781L287.335 23.0636ZM294.771 26.3451C295.969 26.8895 297.175 27.4451 298.389 28.0122L299.119 26.4496C297.899 25.88 296.687 25.3219 295.484 24.7751L294.771 26.3451ZM301.962 29.7016C303.161 30.2757 304.368 30.8607 305.584 31.4569L306.343 29.9086C305.123 29.31 303.911 28.7226 302.707 28.1461L301.962 29.7016ZM309.255 33.2791C309.871 33.5884 310.489 33.9006 311.11 34.2156L311.89 32.6779C311.268 32.3617 310.647 32.0484 310.029 31.7379L309.255 33.2791ZM312.035 35.0862C312.941 34.7907 313.435 33.8171 313.139 32.9116L308.323 18.1565C308.028 17.2511 307.054 16.7566 306.149 17.0522C305.243 17.3477 304.749 18.3213 305.044 19.2268L309.325 32.3424L296.21 36.6236C295.304 36.9191 294.81 37.8927 295.105 38.7982C295.401 39.7036 296.375 40.198 297.28 39.9025L312.035 35.0862ZM0.0716223 35.1173C0.749245 35.2911 1.42385 35.4607 2.09547 35.6263L2.92129 32.2775C2.26004 32.1144 1.59575 31.9474 0.928378 31.7762L0.0716223 35.1173ZM6.08972 36.5719C7.40941 36.8711 8.71745 37.1546 10.0142 37.4226L10.7124 34.0449C9.43743 33.7813 8.1509 33.5025 6.85248 33.2081L6.08972 36.5719ZM13.999 38.2048C15.3576 38.4572 16.7037 38.6925 18.0375 38.9113L18.5957 35.5076C17.286 35.2928 15.9639 35.0617 14.629 34.8137L13.999 38.2048ZM22.0026 39.5181C23.3685 39.7121 24.7214 39.8885 26.0618 40.048L26.4692 36.6229C25.1548 36.4666 23.8278 36.2935 22.4876 36.1032L22.0026 39.5181ZM30.1172 40.4826C31.4599 40.6106 32.7899 40.7215 34.1077 40.8157L34.3539 37.3754C33.0632 37.283 31.7603 37.1744 30.4445 37.049L30.1172 40.4826ZM38.2302 41.0592C39.5912 41.1224 40.939 41.1679 42.2742 41.1965L42.3479 37.7481C41.0415 37.7202 39.7225 37.6756 38.3903 37.6137L38.2302 41.0592ZM46.3472 41.2313C47.7215 41.2254 49.0823 41.2015 50.4304 41.1604L50.3254 37.7128C49.0072 37.753 47.6764 37.7764 46.3323 37.7822L46.3472 41.2313ZM54.4624 40.9851C55.841 40.9071 57.2064 40.8114 58.559 40.6988L58.2729 37.2615C56.9504 37.3716 55.6156 37.4652 54.2677 37.5414L54.4624 40.9851ZM62.5794 40.3113C63.9476 40.1615 65.3029 39.9947 66.646 39.812L66.1811 36.3943C64.8672 36.573 63.5418 36.7361 62.2039 36.8827L62.5794 40.3113ZM70.6585 39.214C72.0086 38.9952 73.3468 38.7609 74.6737 38.5119L74.0377 35.1219C72.7382 35.3657 71.4282 35.5951 70.1069 35.8092L70.6585 39.214ZM78.6599 37.7142C79.9922 37.4311 81.3136 37.134 82.6248 36.8239L81.831 33.4673C80.5446 33.7715 79.2488 34.0629 77.943 34.3404L78.6599 37.7142ZM86.5719 35.8448C87.8864 35.5039 89.1912 35.1507 90.4872 34.7865L89.5541 31.466C88.2795 31.8241 86.997 32.1712 85.7058 32.5062L86.5719 35.8448ZM94.3886 33.6506C95.6857 33.26 96.9747 32.8594 98.2562 32.4501L97.2067 29.1645C95.9424 29.5683 94.6719 29.9632 93.3942 30.3479L94.3886 33.6506ZM102.112 31.1863C103.393 30.756 104.668 30.3179 105.937 29.8736L104.797 26.6182C103.54 27.0581 102.28 27.4913 101.013 27.9166L102.112 31.1863ZM109.751 28.5142C111.019 28.0549 112.282 27.5904 113.541 27.1221L112.339 23.8892C111.088 24.3546 109.834 24.8157 108.576 25.2712L109.751 28.5142ZM117.323 25.7012C118.582 25.2244 119.837 24.7449 121.09 24.2642L119.855 21.0437C118.605 21.5233 117.354 22.0011 116.101 22.4759L117.323 25.7012ZM124.853 22.817C126.105 22.3342 127.357 21.8517 128.609 21.3702L127.371 18.1509C126.117 18.6329 124.864 19.1161 123.612 19.5985L124.853 22.817ZM132.364 19.9321C133.616 19.4552 134.868 18.981 136.123 18.5108L134.913 15.281C133.651 15.7539 132.392 16.2303 131.136 16.7089L132.364 19.9321ZM139.885 17.1167C141.14 16.6573 142.398 16.2032 143.659 15.7555L142.506 12.5048C141.232 12.9568 139.964 13.4148 138.699 13.8777L139.885 17.1167ZM147.439 14.4398C148.701 14.0091 149.968 13.586 151.241 13.1719L150.174 9.89197C148.884 10.3116 147.601 10.7398 146.325 11.1754L147.439 14.4398ZM155.046 11.9672C156.319 11.5757 157.598 11.1941 158.885 10.8236L157.931 7.50907C156.623 7.88558 155.324 8.27311 154.032 8.6704L155.046 11.9672ZM162.72 9.75998C164.006 9.41714 165.3 9.08629 166.603 8.76858L165.786 5.41756C164.458 5.74134 163.14 6.0783 161.831 6.42724L162.72 9.75998ZM170.467 7.87221C171.765 7.58679 173.072 7.31511 174.389 7.05824L173.729 3.67281C172.384 3.93511 171.05 4.21242 169.726 4.5036L170.467 7.87221ZM178.286 6.34818C179.591 6.12692 180.908 5.92078 182.237 5.73075L181.748 2.31634C180.39 2.51064 179.044 2.72137 177.709 2.94747L178.286 6.34818ZM186.168 5.22055C187.478 5.06789 188.8 4.9313 190.134 4.81171L189.826 1.37631C188.461 1.49867 187.109 1.63841 185.768 1.79456L186.168 5.22055ZM194.102 4.50941C195.411 4.4273 196.732 4.36179 198.065 4.31371L197.941 0.866783C196.577 0.915973 195.225 0.982999 193.886 1.06701L194.102 4.50941ZM202.079 4.22284C203.379 4.21078 204.692 4.21541 206.017 4.23747L206.074 0.788779C204.719 0.766227 203.377 0.761488 202.047 0.77382L202.079 4.22284ZM210.032 4.35664C211.336 4.41224 212.652 4.48473 213.981 4.57478L214.214 1.1335C212.856 1.04151 211.511 0.96743 210.179 0.910608L210.032 4.35664ZM217.947 4.89247C219.271 5.01487 220.609 5.15467 221.96 5.31249L222.36 1.88661C220.982 1.72559 219.616 1.5829 218.264 1.45793L217.947 4.89247ZM225.852 5.81224C227.162 5.99548 228.485 6.19556 229.82 6.41301L230.375 3.00868C229.014 2.78711 227.666 2.58317 226.33 2.39633L225.852 5.81224ZM233.763 7.09894C235.041 7.33541 236.331 7.58768 237.634 7.85618L238.33 4.47807C237.005 4.20487 235.692 3.9481 234.391 3.70732L233.763 7.09894ZM241.577 8.71083C242.86 9.00214 244.154 9.30903 245.46 9.6319L246.288 6.28353C244.961 5.95547 243.645 5.64354 242.341 5.34735L241.577 8.71083ZM249.284 10.6142C250.57 10.9569 251.868 11.3148 253.178 11.6885L254.124 8.37174C252.795 7.99257 251.478 7.62921 250.172 7.28129L249.284 10.6142ZM257.028 12.8226C258.27 13.1995 259.522 13.5904 260.785 13.9956L261.839 10.7113C260.559 10.3007 259.289 9.90439 258.03 9.52212L257.028 12.8226ZM264.606 15.254C265.882 15.6852 267.169 16.1307 268.467 16.5909L269.62 13.34C268.306 12.8741 267.003 12.423 265.71 11.9862L264.606 15.254ZM272.139 17.9211C273.373 18.3775 274.616 18.8469 275.87 19.3296L277.109 16.1109C275.842 15.6228 274.584 15.1479 273.336 14.6862L272.139 17.9211ZM279.66 20.8179C280.887 21.3088 282.123 21.8122 283.369 22.3284L284.689 19.142C283.43 18.6205 282.181 18.1117 280.941 17.6156L279.66 20.8179ZM286.996 23.8564C288.214 24.3777 289.441 24.911 290.678 25.4566L292.07 22.301C290.822 21.7503 289.583 21.2118 288.353 20.6854L286.996 23.8564ZM294.414 27.1301C295.609 27.6733 296.812 28.2277 298.024 28.7935L299.484 25.6682C298.261 25.0975 297.047 24.5381 295.841 23.9901L294.414 27.1301ZM301.59 30.4793C302.786 31.0522 303.991 31.6361 305.204 32.2311L306.723 29.1344C305.5 28.5346 304.286 27.946 303.079 27.3684L301.59 30.4793ZM308.868 34.0497C309.483 34.3585 310.1 34.67 310.719 34.9844L312.281 31.9091C311.657 31.5923 311.035 31.2784 310.416 30.9673L308.868 34.0497Z" fill="#2673D1"/>
</svg>
