<svg width="165" height="60" viewBox="0 0 165 60" fill="none" xmlns="http://www.w3.org/2000/svg">
<path d="M87.6826 26.104C87.6826 27.3766 87.3905 28.5449 86.8064 29.6089C86.2222 30.6521 85.3251 31.497 84.1151 32.1438C82.905 32.7905 81.4029 33.1139 79.6087 33.1139H76.2915V41H70.9402V19.0315H79.6087C81.3612 19.0315 82.8424 19.334 84.0525 19.9391C85.2625 20.5441 86.17 21.3786 86.7751 22.4426C87.3801 23.5066 87.6826 24.7271 87.6826 26.104ZM79.2019 28.8579C80.2242 28.8579 80.9856 28.618 81.4864 28.1381C81.9871 27.6583 82.2374 26.9802 82.2374 26.104C82.2374 25.2278 81.9871 24.5497 81.4864 24.0699C80.9856 23.59 80.2242 23.3501 79.2019 23.3501H76.2915V28.8579H79.2019ZM89.4045 32.2376C89.4045 30.4435 89.7383 28.8683 90.4059 27.5122C91.0944 26.1562 92.0228 25.113 93.1911 24.3828C94.3594 23.6526 95.6633 23.2875 97.1029 23.2875C98.3338 23.2875 99.4082 23.5379 100.326 24.0386C101.265 24.5393 101.985 25.1965 102.485 26.0101V23.5379H107.837V41H102.485V38.5278C101.964 39.3414 101.234 39.9986 100.295 40.4993C99.3769 41 98.3025 41.2504 97.0716 41.2504C95.6529 41.2504 94.3594 40.8853 93.1911 40.1551C92.0228 39.404 91.0944 38.3504 90.4059 36.9944C89.7383 35.6174 89.4045 34.0318 89.4045 32.2376ZM102.485 32.2689C102.485 30.9337 102.11 29.8802 101.359 29.1082C100.629 28.3363 99.7316 27.9504 98.6676 27.9504C97.6036 27.9504 96.696 28.3363 95.945 29.1082C95.2148 29.8593 94.8497 30.9024 94.8497 32.2376C94.8497 33.5729 95.2148 34.6369 95.945 35.4296C96.696 36.2016 97.6036 36.5875 98.6676 36.5875C99.7316 36.5875 100.629 36.2016 101.359 35.4296C102.11 34.6577 102.485 33.6042 102.485 32.2689ZM116.715 36.5875H124.288V41H110.738V36.744L117.998 27.9504H110.801V23.5379H124.132V27.7939L116.715 36.5875ZM126.169 32.2376C126.169 30.4435 126.503 28.8683 127.17 27.5122C127.859 26.1562 128.787 25.113 129.956 24.3828C131.124 23.6526 132.428 23.2875 133.867 23.2875C135.098 23.2875 136.173 23.5379 137.091 24.0386C138.029 24.5393 138.749 25.1965 139.25 26.0101V23.5379H144.601V41H139.25V38.5278C138.728 39.3414 137.998 39.9986 137.059 40.4993C136.141 41 135.067 41.2504 133.836 41.2504C132.417 41.2504 131.124 40.8853 129.956 40.1551C128.787 39.404 127.859 38.3504 127.17 36.9944C126.503 35.6174 126.169 34.0318 126.169 32.2376ZM139.25 32.2689C139.25 30.9337 138.874 29.8802 138.123 29.1082C137.393 28.3363 136.496 27.9504 135.432 27.9504C134.368 27.9504 133.461 28.3363 132.709 29.1082C131.979 29.8593 131.614 30.9024 131.614 32.2376C131.614 33.5729 131.979 34.6369 132.709 35.4296C133.461 36.2016 134.368 36.5875 135.432 36.5875C136.496 36.5875 137.393 36.2016 138.123 35.4296C138.874 34.6577 139.25 33.6042 139.25 32.2689Z" fill="#0F2D52"/>
<rect x="44.4932" y="23.6057" width="17.8732" height="8.60563" rx="4.30282" transform="rotate(180 44.4932 23.6057)" fill="#0F2D52"/>
<rect x="43.8311" y="44.7888" width="11.2535" height="8.60563" rx="4.30282" transform="rotate(180 43.8311 44.7888)" fill="#0F2D52"/>
<rect x="44.4932" y="34.1973" width="24.493" height="8.60564" rx="4.30282" transform="rotate(180 44.4932 34.1973)" fill="#0F2D52"/>
</svg>
