<svg width="64" height="51" viewBox="0 0 64 51" fill="none" xmlns="http://www.w3.org/2000/svg">
<rect opacity="0.05" x="0.5" y="11.5" width="48" height="39" rx="6" fill="#2673D1"/>
<rect x="9.5" y="0.5" width="54" height="45" rx="6" fill="#2673D1"/>
<path d="M40.2161 27.7234H32.9961" stroke="white" stroke-width="1.5" stroke-linecap="round" stroke-linejoin="round"/>
<path d="M40.2161 23.5369H32.9961" stroke="white" stroke-width="1.5" stroke-linecap="round" stroke-linejoin="round"/>
<path d="M35.7521 19.3601H32.9971" stroke="white" stroke-width="1.5" stroke-linecap="round" stroke-linejoin="round"/>
<path fill-rule="evenodd" clip-rule="evenodd" d="M40.409 14.2498C40.409 14.2498 32.732 14.2538 32.72 14.2538C29.96 14.2708 28.251 16.0868 28.251 18.8568V28.0528C28.251 30.8368 29.973 32.6598 32.757 32.6598C32.757 32.6598 40.433 32.6568 40.446 32.6568C43.206 32.6398 44.916 30.8228 44.916 28.0528V18.8568C44.916 16.0728 43.193 14.2498 40.409 14.2498Z" stroke="white" stroke-width="1.5" stroke-linecap="round" stroke-linejoin="round"/>
</svg>
