<svg width="314" height="41" viewBox="0 0 314 41" fill="none" xmlns="http://www.w3.org/2000/svg">
<path d="M312.268 33.7747C312.72 33.627 312.967 33.1402 312.82 32.6874L310.412 25.3099C310.264 24.8572 309.777 24.6099 309.324 24.7577C308.872 24.9055 308.624 25.3923 308.772 25.845L310.913 32.4028L304.355 34.5434C303.902 34.6912 303.655 35.178 303.803 35.6307C303.951 36.0834 304.437 36.3306 304.89 36.1829L312.268 33.7747ZM0.785811 33.7903C1.46087 33.9634 2.1329 34.1324 2.80193 34.2974L3.21483 32.6229C2.55099 32.4592 1.88413 32.2915 1.21419 32.1197L0.785811 33.7903ZM6.78041 35.2392C8.09478 35.5372 9.39745 35.8195 10.6887 36.0864L11.0378 34.3975C9.75743 34.1329 8.46552 33.8529 7.16179 33.5573L6.78041 35.2392ZM14.6565 36.8653C16.0092 37.1166 17.3493 37.3509 18.677 37.5686L18.9561 35.8667C17.6404 35.651 16.3123 35.4188 14.9715 35.1697L14.6565 36.8653ZM22.6239 38.1726C23.9833 38.3657 25.3298 38.5413 26.6636 38.6999L26.8673 36.9874C25.5465 36.8303 24.213 36.6564 22.8664 36.4652L22.6239 38.1726ZM30.699 39.1325C32.035 39.2598 33.3582 39.3701 34.6693 39.4639L34.7923 37.7437C33.4949 37.6509 32.1852 37.5417 30.8627 37.4156L30.699 39.1325ZM38.7703 39.7061C40.124 39.7689 41.4646 39.8142 42.7926 39.8426L42.8295 38.1184C41.5159 38.0904 40.1896 38.0456 38.8503 37.9833L38.7703 39.7061ZM46.8435 39.8773C48.2102 39.8714 49.5635 39.8476 50.9041 39.8068L50.8516 38.083C49.526 38.1234 48.1877 38.1469 46.836 38.1527L46.8435 39.8773ZM54.9137 39.6324C56.2847 39.5549 57.6424 39.4597 58.9875 39.3477L58.8444 37.6291C57.5144 37.7398 56.1719 37.8339 54.8163 37.9106L54.9137 39.6324ZM62.9855 38.9624C64.3461 38.8134 65.694 38.6475 67.0298 38.4658L66.7973 36.757C65.4762 36.9367 64.1432 37.1007 62.7978 37.2481L62.9855 38.9624ZM71.0206 37.871C72.3635 37.6534 73.6946 37.4203 75.0147 37.1726L74.6967 35.4776C73.3904 35.7227 72.0733 35.9534 70.7448 36.1686L71.0206 37.871ZM78.9806 36.379C80.3064 36.0973 81.6214 35.8016 82.9264 35.493L82.5295 33.8147C81.2368 34.1204 79.9347 34.4132 78.6222 34.6921L78.9806 36.379ZM86.8554 34.5184C88.1641 34.1789 89.4633 33.8273 90.7539 33.4646L90.2874 31.8044C89.0074 32.164 87.7194 32.5126 86.4224 32.8491L86.8554 34.5184ZM94.64 32.3331C95.9323 31.9441 97.2166 31.5449 98.4939 31.1369L97.9691 29.4941C96.7005 29.8993 95.4253 30.2956 94.1428 30.6818L94.64 32.3331ZM102.337 29.8771C103.615 29.448 104.886 29.0112 106.152 28.568L105.582 26.9403C104.322 27.3813 103.058 27.8157 101.788 28.2423L102.337 29.8771ZM109.957 27.2117C111.222 26.7533 112.483 26.2897 113.741 25.8221L113.14 24.2057C111.886 24.6718 110.63 25.1337 109.37 25.5902L109.957 27.2117ZM117.518 24.4031C118.775 23.9268 120.029 23.4477 121.282 22.9673L120.664 21.3571C119.413 21.837 118.161 22.3152 116.907 22.7905L117.518 24.4031ZM125.042 21.5206C126.295 21.0379 127.547 20.5552 128.799 20.0736L128.18 18.464C126.927 18.9458 125.675 19.4288 124.422 19.9114L125.042 21.5206ZM132.557 18.6345C133.81 18.1572 135.064 17.6825 136.32 17.2116L135.715 15.5967C134.455 16.0689 133.198 16.5448 131.943 17.0229L132.557 18.6345ZM140.088 15.8152C141.346 15.3549 142.606 14.8998 143.871 14.4511L143.295 12.8257C142.024 13.2766 140.758 13.7337 139.495 14.1957L140.088 15.8152ZM147.66 13.1319C148.926 12.7 150.197 12.2757 151.474 11.8601L150.94 10.2202C149.655 10.6384 148.376 11.0654 147.103 11.4997L147.66 13.1319ZM155.292 10.6512C156.57 10.2583 157.854 9.8752 159.147 9.50324L158.669 7.84595C157.367 8.22095 156.072 8.60699 154.785 9.00283L155.292 10.6512ZM162.998 8.43503C164.289 8.09067 165.59 7.75829 166.899 7.43906L166.49 5.76355C165.169 6.08582 163.857 6.42125 162.554 6.76866L162.998 8.43503ZM170.782 6.5383C172.086 6.25144 173.4 5.97835 174.724 5.72012L174.394 4.02741C173.056 4.28835 171.728 4.56425 170.411 4.85399L170.782 6.5383ZM178.641 5.00624C179.955 4.78377 181.279 4.57648 182.615 4.38539L182.37 2.67818C181.02 2.87141 179.681 3.081 178.353 3.30588L178.641 5.00624ZM186.568 3.8723C187.885 3.71876 189.215 3.58138 190.557 3.4611L190.403 1.7434C189.046 1.86507 187.701 2.00402 186.368 2.1593L186.568 3.8723ZM194.548 3.15705C195.864 3.07447 197.193 3.00858 198.534 2.96022L198.472 1.23676C197.115 1.28567 195.772 1.35231 194.44 1.43585L194.548 3.15705ZM202.571 2.86883C203.879 2.8567 205.198 2.86136 206.531 2.88354L206.56 1.15919C205.212 1.13676 203.878 1.13205 202.555 1.14432L202.571 2.86883ZM210.569 3.00337C211.879 3.05928 213.203 3.13216 214.54 3.2227L214.656 1.50206C213.305 1.41055 211.967 1.33687 210.642 1.28036L210.569 3.00337ZM218.526 3.54208C219.857 3.66512 221.202 3.80564 222.56 3.96426L222.76 2.25132C221.388 2.0911 220.03 1.94914 218.685 1.82481L218.526 3.54208ZM226.472 4.4665C227.788 4.65064 229.117 4.85168 230.459 5.07017L230.736 3.368C229.381 3.14746 228.04 2.94448 226.711 2.75855L226.472 4.4665ZM234.42 5.75927C235.704 5.99683 237 6.25022 238.308 6.51989L238.656 4.83084C237.337 4.55881 236.029 4.30317 234.734 4.06346L234.42 5.75927ZM242.268 7.3782C243.556 7.67073 244.855 7.97888 246.167 8.30305L246.581 6.62887C245.259 6.3021 243.949 5.99143 242.65 5.69646L242.268 7.3782ZM250.006 9.28922C251.297 9.63319 252.6 9.99251 253.914 10.3676L254.387 8.70917C253.064 8.33138 251.751 7.96936 250.45 7.62276L250.006 9.28922ZM257.779 11.5057C259.025 11.884 260.281 12.2762 261.549 12.6827L262.075 11.0406C260.8 10.6314 259.535 10.2364 258.28 9.85547L257.779 11.5057ZM265.382 13.9453C266.662 14.3778 267.953 14.8248 269.255 15.2864L269.832 13.6609C268.522 13.1965 267.223 12.7468 265.934 12.3114L265.382 13.9453ZM272.939 16.6206C274.176 17.0783 275.423 17.5491 276.68 18.0332L277.3 16.4238C276.036 15.937 274.781 15.4636 273.537 15.0031L272.939 16.6206ZM280.48 19.5255C281.71 20.0178 282.95 20.5225 284.199 21.0401L284.859 19.4468C283.604 18.9267 282.358 18.4192 281.121 17.9244L280.48 19.5255ZM287.835 22.5718C289.057 23.0944 290.287 23.629 291.526 24.1759L292.222 22.5981C290.977 22.0487 289.741 21.5115 288.514 20.9863L287.835 22.5718ZM295.271 25.8533C296.469 26.3977 297.675 26.9534 298.889 27.5205L299.619 25.9578C298.399 25.3883 297.187 24.8301 295.984 24.2833L295.271 25.8533ZM302.462 29.2098C303.661 29.7839 304.868 30.369 306.084 30.9652L306.843 29.4168C305.623 28.8182 304.411 28.2308 303.207 27.6543L302.462 29.2098ZM309.755 32.7873C310.371 33.0967 310.989 33.4088 311.61 33.7238L312.39 32.1862C311.768 31.87 311.147 31.5566 310.529 31.2461L309.755 32.7873ZM312.535 34.5945C313.441 34.2989 313.935 33.3253 313.639 32.4199L308.823 17.6648C308.528 16.7593 307.554 16.2649 306.649 16.5604C305.743 16.856 305.249 17.8296 305.544 18.735L309.825 31.8507L296.71 36.1318C295.804 36.4273 295.31 37.4009 295.605 38.3064C295.901 39.2118 296.875 39.7063 297.78 39.4107L312.535 34.5945ZM0.571622 34.6255C1.24924 34.7993 1.92385 34.969 2.59547 35.1346L3.42129 31.7857C2.76004 31.6227 2.09575 31.4556 1.42838 31.2845L0.571622 34.6255ZM6.58972 36.0801C7.90941 36.3794 9.21745 36.6628 10.5142 36.9309L11.2124 33.5531C9.93743 33.2896 8.6509 33.0108 7.35248 32.7163L6.58972 36.0801ZM14.499 37.7131C15.8576 37.9655 17.2037 38.2008 18.5375 38.4195L19.0957 35.0158C17.786 34.801 16.4639 34.5699 15.129 34.3219L14.499 37.7131ZM22.5026 39.0264C23.8685 39.2203 25.2214 39.3968 26.5618 39.5562L26.9692 36.1312C25.6548 35.9748 24.3278 35.8018 22.9876 35.6115L22.5026 39.0264ZM30.6172 39.9909C31.9599 40.1188 33.2899 40.2297 34.6077 40.324L34.8539 36.8836C33.5632 36.7913 32.2603 36.6827 30.9445 36.5573L30.6172 39.9909ZM38.7302 40.5674C40.0912 40.6306 41.439 40.6762 42.7742 40.7047L42.8479 37.2563C41.5415 37.2284 40.2225 37.1839 38.8903 37.122L38.7302 40.5674ZM46.8472 40.7396C48.2215 40.7336 49.5823 40.7097 50.9304 40.6687L50.8254 37.2211C49.5072 37.2612 48.1764 37.2846 46.8323 37.2904L46.8472 40.7396ZM54.9624 40.4933C56.341 40.4154 57.7064 40.3196 59.059 40.207L58.7729 36.7698C57.4504 36.8798 56.1156 36.9734 54.7677 37.0497L54.9624 40.4933ZM63.0794 39.8196C64.4476 39.6697 65.8029 39.503 67.146 39.3202L66.6811 35.9025C65.3672 36.0813 64.0418 36.2444 62.7039 36.3909L63.0794 39.8196ZM71.1585 38.7222C72.5086 38.5035 73.8468 38.2691 75.1737 38.0201L74.5377 34.6301C73.2382 34.8739 71.9282 35.1034 70.6069 35.3174L71.1585 38.7222ZM79.1599 37.2225C80.4922 36.9394 81.8136 36.6422 83.1248 36.3321L82.331 32.9755C81.0446 33.2798 79.7488 33.5712 78.443 33.8486L79.1599 37.2225ZM87.0719 35.3531C88.3864 35.0121 89.6912 34.6589 90.9872 34.2948L90.0541 30.9742C88.7795 31.3324 87.497 31.6795 86.2058 32.0144L87.0719 35.3531ZM94.8886 33.1588C96.1857 32.7683 97.4747 32.3677 98.7562 31.9583L97.7067 28.6727C96.4424 29.0766 95.1719 29.4714 93.8942 29.8561L94.8886 33.1588ZM102.612 30.6945C103.893 30.2642 105.168 29.8262 106.437 29.3818L105.297 26.1265C104.04 26.5664 102.78 26.9996 101.513 27.4248L102.612 30.6945ZM110.251 28.0224C111.519 27.5631 112.782 27.0986 114.041 26.6303L112.839 23.3974C111.588 23.8628 110.334 24.3239 109.076 24.7795L110.251 28.0224ZM117.823 25.2095C119.082 24.7326 120.337 24.2531 121.59 23.7724L120.355 20.552C119.105 21.0316 117.854 21.5094 116.601 21.9842L117.823 25.2095ZM125.353 22.3252C126.605 21.8424 127.857 21.3599 129.109 20.8785L127.871 17.6591C126.617 18.1411 125.364 18.6243 124.112 19.1068L125.353 22.3252ZM132.864 19.4403C134.116 18.9634 135.368 18.4893 136.623 18.019L135.413 14.7893C134.151 15.2621 132.892 15.7385 131.636 16.2171L132.864 19.4403ZM140.385 16.625C141.64 16.1656 142.898 15.7114 144.159 15.2637L143.006 12.0131C141.732 12.465 140.464 12.9231 139.199 13.3859L140.385 16.625ZM147.939 13.948C149.201 13.5173 150.468 13.0943 151.741 12.6801L150.674 9.40021C149.384 9.81979 148.101 10.248 146.825 10.6836L147.939 13.948ZM155.546 11.4754C156.819 11.0839 158.098 10.7023 159.385 10.3319L158.431 7.0173C157.123 7.39382 155.824 7.78135 154.532 8.17864L155.546 11.4754ZM163.22 9.26822C164.506 8.92538 165.8 8.59453 167.103 8.27682L166.286 4.9258C164.958 5.24958 163.64 5.58654 162.331 5.93548L163.22 9.26822ZM170.967 7.38045C172.265 7.09503 173.572 6.82335 174.889 6.56648L174.229 3.18105C172.884 3.44335 171.55 3.72066 170.226 4.01184L170.967 7.38045ZM178.786 5.85642C180.091 5.63516 181.408 5.42902 182.737 5.23899L182.248 1.82458C180.89 2.01888 179.544 2.22961 178.209 2.45571L178.786 5.85642ZM186.668 4.72879C187.978 4.57613 189.3 4.43954 190.634 4.31995L190.326 0.88455C188.961 1.00691 187.609 1.14665 186.268 1.3028L186.668 4.72879ZM194.602 4.01765C195.911 3.93554 197.232 3.87003 198.565 3.82195L198.441 0.375023C197.077 0.424213 195.725 0.491239 194.386 0.575248L194.602 4.01765ZM202.579 3.73108C203.879 3.71902 205.192 3.72365 206.517 3.74571L206.574 0.297019C205.219 0.274467 203.877 0.269728 202.547 0.28206L202.579 3.73108ZM210.532 3.86488C211.836 3.92048 213.152 3.99297 214.481 4.08302L214.714 0.641737C213.356 0.549746 212.011 0.475669 210.679 0.418847L210.532 3.86488ZM218.447 4.40071C219.771 4.52311 221.109 4.66291 222.46 4.82073L222.86 1.39485C221.482 1.23383 220.116 1.09114 218.764 0.966174L218.447 4.40071ZM226.352 5.32048C227.662 5.50372 228.985 5.7038 230.32 5.92125L230.875 2.51692C229.514 2.29535 228.166 2.09141 226.83 1.90457L226.352 5.32048ZM234.263 6.60717C235.541 6.84365 236.831 7.09592 238.134 7.36442L238.83 3.98631C237.505 3.71311 236.192 3.45634 234.891 3.21556L234.263 6.60717ZM242.077 8.21907C243.36 8.51038 244.654 8.81727 245.96 9.14014L246.788 5.79177C245.461 5.46371 244.145 5.15178 242.841 4.85559L242.077 8.21907ZM249.784 10.1225C251.07 10.4651 252.368 10.8231 253.678 11.1967L254.624 7.87998C253.295 7.50081 251.978 7.13745 250.672 6.78953L249.784 10.1225ZM257.528 12.3308C258.77 12.7078 260.022 13.0987 261.285 13.5038L262.339 10.2195C261.059 9.80891 259.789 9.41263 258.53 9.03036L257.528 12.3308ZM265.106 14.7622C266.382 15.1934 267.669 15.6389 268.967 16.0991L270.12 12.8482C268.806 12.3824 267.503 11.9312 266.21 11.4945L265.106 14.7622ZM272.639 17.4293C273.873 17.8857 275.116 18.3551 276.37 18.8379L277.609 15.6192C276.342 15.131 275.084 14.6562 273.836 14.1944L272.639 17.4293ZM280.16 20.3261C281.387 20.817 282.623 21.3205 283.869 21.8367L285.189 18.6502C283.93 18.1287 282.681 17.62 281.441 17.1238L280.16 20.3261ZM287.496 23.3646C288.714 23.8859 289.941 24.4192 291.178 24.9648L292.57 21.8092C291.322 21.2585 290.083 20.72 288.853 20.1936L287.496 23.3646ZM294.914 26.6384C296.109 27.1815 297.312 27.7359 298.524 28.3018L299.984 25.1765C298.761 24.6057 297.547 24.0464 296.341 23.4983L294.914 26.6384ZM302.09 29.9876C303.286 30.5605 304.491 31.1443 305.704 31.7393L307.223 28.6427C306 28.0429 304.786 27.4542 303.579 26.8766L302.09 29.9876ZM309.368 33.558C309.983 33.8667 310.6 34.1783 311.219 34.4927L312.781 31.4173C312.157 31.1006 311.535 30.7866 310.916 30.4755L309.368 33.558Z" fill="#2673D1"/>
</svg>
