<svg width="36" height="36" viewBox="0 0 36 36" fill="none" xmlns="http://www.w3.org/2000/svg">
<rect width="36" height="36" rx="12" fill="#2673D1"/>
<path d="M18.3329 13.6975C18.5826 13.5506 18.7492 13.3164 18.8165 13.0565C18.8839 12.7966 18.8521 12.511 18.7052 12.2613L14.45 5.02696C14.1563 4.52754 13.5132 4.36081 13.0138 4.65458C12.5144 4.9483 12.3477 5.59135 12.6414 6.09078L16.8966 13.3251C17.1904 13.8245 17.8335 13.9913 18.3329 13.6975Z" fill="white"/>
<path d="M18.1714 13.8539C18.4298 13.985 18.7168 13.999 18.972 13.9157C19.2272 13.8323 19.4507 13.6515 19.5818 13.3932L23.3804 5.909C23.6427 5.39238 23.4364 4.7609 22.9197 4.49865C22.4031 4.23645 21.7716 4.44272 21.5094 4.95934L17.7107 12.4434C17.4485 12.9602 17.6548 13.5917 18.1714 13.8539Z" fill="white"/>
<path d="M6 12C6 11.2044 6.31607 10.4413 6.87868 9.87868C7.44129 9.31607 8.20435 9 9 9H27C27.7956 9 28.5587 9.31607 29.1213 9.87868C29.6839 10.4413 30 11.2044 30 12V22.5C30 23.2956 29.6839 24.0587 29.1213 24.6213C28.5587 25.1839 27.7956 25.5 27 25.5H9C8.20435 25.5 7.44129 25.1839 6.87868 24.6213C6.31607 24.0587 6 23.2956 6 22.5V12Z" fill="white"/>
<path d="M11.25 27C11.0511 27 10.8603 27.079 10.7197 27.2197C10.579 27.3603 10.5 27.5511 10.5 27.75C10.5 27.9489 10.579 28.1397 10.7197 28.2803C10.8603 28.421 11.0511 28.5 11.25 28.5H24.75C24.9489 28.5 25.1397 28.421 25.2803 28.2803C25.421 28.1397 25.5 27.9489 25.5 27.75C25.5 27.5511 25.421 27.3603 25.2803 27.2197C25.1397 27.079 24.9489 27 24.75 27H11.25Z" fill="white"/>
</svg>
