<svg width="77" height="72" viewBox="0 0 77 72" fill="none" xmlns="http://www.w3.org/2000/svg">
<rect x="0.773678" y="0.209225" width="75.2336" height="71.1831" rx="18.3507" fill="#50B651"/>
<path d="M38.018 51.8223C47.2085 51.8223 54.659 44.3719 54.659 35.1813C54.659 25.9907 47.2085 18.5403 38.018 18.5403C28.8274 18.5403 21.377 25.9907 21.377 35.1813C21.377 44.3719 28.8274 51.8223 38.018 51.8223Z" fill="#50B651"/>
<path opacity="0.663" fill-rule="evenodd" clip-rule="evenodd" d="M54.6089 35.1344C54.6089 44.3539 47.1352 51.8276 37.9178 51.8276C28.7004 51.8276 21.2246 44.3539 21.2246 35.1344C21.2246 31.0561 21.3389 30.4497 22.9443 28.1279C22.9443 28.1279 22.8614 30.7504 24.7844 32.311C25.9801 33.2806 27.228 32.5806 29.5122 31.5286C31.9831 30.3897 33.9919 29.6549 35.5591 29.8488C37.9199 30.1412 45.1965 34.5111 48.994 33.6409C52.0278 32.9472 51.7076 25.7944 51.7076 25.7944C55.021 29.0299 54.6089 31.2168 54.6089 35.1344Z" fill="url(#paint0_linear_87_2455)"/>
<path opacity="0.586" fill-rule="evenodd" clip-rule="evenodd" d="M45.0801 47.3959C51.1173 41.7171 52.1209 35.2113 48.0907 27.8785C48.1111 27.8934 48.3605 27.033 48.8387 25.2974C50.9835 27.8948 52.124 31.1007 52.2602 34.9153C52.2591 39.8561 49.8657 44.0163 45.0801 47.3959Z" fill="url(#paint1_linear_87_2455)"/>
<path opacity="0.744" fill-rule="evenodd" clip-rule="evenodd" d="M42.2162 25.3317C39.3021 23.7189 35.9589 20.4747 36.4033 19.7934C36.8477 19.1121 42.6159 19.2293 45.5304 20.8421C48.4449 22.4549 50.9254 27.2928 50.4814 27.9741C50.0374 28.6554 45.1303 26.9445 42.2162 25.3317Z" fill="url(#paint2_radial_87_2455)"/>
<path fill-rule="evenodd" clip-rule="evenodd" d="M44.7543 39.2796C42.3368 39.2796 40.377 37.2638 40.377 34.7775C40.377 32.2912 42.3368 30.2759 44.7543 30.2759C47.1719 30.2759 49.1321 32.2912 49.1321 34.7775C49.1321 37.2638 47.1723 39.2796 44.7543 39.2796ZM44.7854 37.8515C46.2942 37.8515 47.5189 36.4752 47.5189 34.7775C47.5189 33.0798 46.2942 31.7048 44.7854 31.7048C43.2766 31.7048 42.0519 33.0811 42.0519 34.7783C42.0519 36.4756 43.2766 37.8515 44.7854 37.8515Z" fill="white"/>
<path fill-rule="evenodd" clip-rule="evenodd" d="M35.7246 26.6509H38.8789V39.2293H37.1473V28.0305H35.7246V26.6509Z" fill="white"/>
<path fill-rule="evenodd" clip-rule="evenodd" d="M33.3734 30.4038H35.0106V40.9081C35.0106 41.8652 34.0038 42.8621 33.0226 43.2912C32.5588 43.4939 31.7028 43.6143 30.4548 43.6524V42.6074C31.6755 42.4713 32.4994 42.1997 32.9265 41.7927C33.173 41.4502 33.3271 41.05 33.3738 40.6306V37.5446C32.9362 38.4731 32.3851 39.0887 31.7205 39.3914C31.0296 39.7641 29.6235 39.7028 29.0495 39.3914C28.4754 39.0799 27.6334 38.2598 27.2474 37.0385C27.1406 36.7013 26.8747 35.7839 26.9024 34.8119C26.9273 33.8862 27.2337 32.9067 27.4885 32.5041C27.9258 31.8166 28.6154 30.9555 29.66 30.5956C30.1702 30.4197 31.1159 30.3565 32.497 30.4059V31.4451C31.4707 31.3758 30.8304 31.4104 30.5761 31.549C30.1947 31.7561 29.3336 32.0117 29.0495 33.8883C28.7654 35.7649 29.0578 37.3006 29.9586 37.7815C30.2671 37.9471 30.813 38.1431 31.3175 37.9703C32.2866 37.639 33.1986 36.4574 33.2682 35.6568C33.3384 34.8445 33.3734 33.0935 33.3734 30.4038Z" fill="white"/>
<path fill-rule="evenodd" clip-rule="evenodd" d="M54.0865 38.4755C52.5404 45.9203 45.9435 51.5141 38.0407 51.5141C28.9898 51.5141 21.6523 44.1766 21.6523 35.1257C21.6523 29.5029 24.484 24.5415 28.7989 21.5906C25.2929 24.4981 23.0605 28.8904 23.0605 33.802C23.0605 42.563 30.1627 49.6648 38.9233 49.6648C46.0578 49.6648 52.0915 44.9552 54.0865 38.4755Z" fill="url(#paint3_radial_87_2455)"/>
<path fill-rule="evenodd" clip-rule="evenodd" d="M38.0394 15.7175C27.3206 15.7175 18.6309 24.4069 18.6309 35.1256C18.6309 45.8444 27.3206 54.5341 38.0394 54.5341C48.7581 54.5341 57.4479 45.8444 57.4479 35.1256C57.4479 24.4069 48.7581 15.7175 38.0394 15.7175ZM38.0394 51.5144C28.9885 51.5144 21.651 44.1769 21.651 35.126C21.651 29.5032 24.4827 24.5419 28.7975 21.5909C31.5188 19.7272 34.7411 18.7322 38.0394 18.7373C47.0903 18.7373 54.4277 26.0743 54.4277 35.1256C54.4283 36.251 54.3135 37.3735 54.0852 38.4754C52.5391 45.9202 45.9422 51.514 38.0394 51.514V51.5144Z" fill="white"/>
<rect x="0.773678" y="0.209225" width="75.2336" height="71.1831" rx="18.3507" stroke="#BDBDBD" stroke-width="0.418451"/>
<defs>
<linearGradient id="paint0_linear_87_2455" x1="37.2729" y1="28.074" x2="39.4125" y2="47.3964" gradientUnits="userSpaceOnUse">
<stop stop-color="#123214"/>
<stop offset="0.46" stop-color="#3E7C37"/>
<stop offset="0.91" stop-color="#5FBB46"/>
</linearGradient>
<linearGradient id="paint1_linear_87_2455" x1="49.6329" y1="26.8179" x2="49.6329" y2="42.4427" gradientUnits="userSpaceOnUse">
<stop stop-color="white" stop-opacity="0"/>
<stop offset="0.64" stop-color="white" stop-opacity="0.43"/>
<stop offset="1" stop-color="white" stop-opacity="0.42"/>
</linearGradient>
<radialGradient id="paint2_radial_87_2455" cx="0" cy="0" r="1" gradientUnits="userSpaceOnUse" gradientTransform="translate(43.797 23.9932) rotate(26.7606) scale(8.2231 3.42477)">
<stop offset="0.13" stop-color="white"/>
<stop offset="0.29" stop-color="white" stop-opacity="0.69"/>
<stop offset="0.45" stop-color="white" stop-opacity="0.4"/>
<stop offset="0.59" stop-color="white" stop-opacity="0.18"/>
<stop offset="0.69" stop-color="white" stop-opacity="0.05"/>
<stop offset="0.74" stop-color="white" stop-opacity="0"/>
</radialGradient>
<radialGradient id="paint3_radial_87_2455" cx="0" cy="0" r="1" gradientUnits="userSpaceOnUse" gradientTransform="translate(40.8509 31.3498) rotate(39.84) scale(18.4277 20.0862)">
<stop offset="0.86" stop-opacity="0"/>
<stop offset="0.98" stop-opacity="0.47"/>
<stop offset="1"/>
</radialGradient>
</defs>
</svg>
