<svg width="36" height="36" viewBox="0 0 36 36" fill="none" xmlns="http://www.w3.org/2000/svg">
<rect width="36" height="36" rx="12" fill="#2673D1"/>
<path d="M19.625 10.5L15.875 16.125H18.375V19.875L22.125 14.25H19.625V10.5Z" fill="white"/>
<path fill-rule="evenodd" clip-rule="evenodd" d="M27.6935 15.0456C27.506 16.65 26.8598 18.17 25.8292 19.43C25.2279 20.1644 23.6998 22.2625 23.3748 23.625H14.6248C14.2998 22.2613 12.7698 20.1631 12.1685 19.4281C11.1413 18.1743 10.495 16.6523 10.306 15.0425C10.1198 13.4361 10.4001 11.81 11.1135 10.3588C11.8337 8.89639 12.9531 7.66777 14.3423 6.815C15.7436 5.9539 17.3563 5.49867 19.001 5.5C20.6498 5.5 22.2648 5.95625 23.6598 6.81688C25.0486 7.66997 26.1676 8.89881 26.8873 10.3613C27.6004 11.8129 27.8803 13.4391 27.6935 15.0456ZM22.4892 22.375H15.5098C15.2435 21.7606 14.8879 21.145 14.5567 20.6219C14.1208 19.9344 13.6467 19.2719 13.1367 18.6375C12.2605 17.5685 11.7092 16.2708 11.5479 14.8981C11.3891 13.5301 11.6278 12.1453 12.2354 10.9094C12.8517 9.65883 13.8095 8.60832 14.9979 7.87938C16.202 7.13967 17.5879 6.7487 19.001 6.75C20.4198 6.75 21.8073 7.14313 23.0042 7.88125C24.1921 8.61035 25.1495 9.66085 25.7654 10.9113C26.3727 12.1475 26.6109 13.5325 26.4517 14.9006C26.2898 16.273 25.738 17.5703 24.8617 18.6388C24.5304 19.0425 23.9685 19.7913 23.4423 20.6231C23.111 21.1463 22.7554 21.7606 22.4892 22.375Z" fill="white"/>
<path d="M14.625 25.5C14.625 25.3342 14.6908 25.1753 14.8081 25.0581C14.9253 24.9408 15.0842 24.875 15.25 24.875H22.75C22.9158 24.875 23.0747 24.9408 23.1919 25.0581C23.3092 25.1753 23.375 25.3342 23.375 25.5C23.375 25.6658 23.3092 25.8247 23.1919 25.9419C23.0747 26.0592 22.9158 26.125 22.75 26.125H15.25C15.0842 26.125 14.9253 26.0592 14.8081 25.9419C14.6908 25.8247 14.625 25.6658 14.625 25.5Z" fill="white"/>
<path fill-rule="evenodd" clip-rule="evenodd" d="M14.625 27.375H23.375V29.25C23.375 29.5815 23.2433 29.8995 23.0089 30.1339C22.7745 30.3683 22.4565 30.5 22.125 30.5H15.875C15.5435 30.5 15.2255 30.3683 14.9911 30.1339C14.7567 29.8995 14.625 29.5815 14.625 29.25V27.375ZM15.875 28.625H22.125V29.25H15.875V28.625Z" fill="white"/>
</svg>
