<svg width="76" height="72" viewBox="0 0 76 72" fill="none" xmlns="http://www.w3.org/2000/svg">
<rect x="0.927999" y="0.927999" width="73.7961" height="69.7455" rx="17.632" fill="#FFC325"/>
<path d="M57.6455 15.2627H17.0566V55.8503H57.6455V15.2627Z" fill="#FFC325"/>
<path d="M17.6738 35.5567C17.6738 31.3177 26.4837 27.8809 37.3511 27.8809C48.2186 27.8809 57.0284 31.3185 57.0284 35.5571C57.0284 39.7958 48.219 43.2317 37.3511 43.2317C26.4833 43.2317 17.6738 39.7953 17.6738 35.5567Z" fill="#006891"/>
<path d="M17.6738 35.5567C17.6738 31.3177 26.4837 27.8809 37.3511 27.8809C48.2186 27.8809 57.0284 31.3185 57.0284 35.5571C57.0284 39.7958 48.219 43.2317 37.3511 43.2317C26.4833 43.2317 17.6738 39.7953 17.6738 35.5567Z" stroke="#006891" stroke-width="0.0581948" stroke-miterlimit="3.8636"/>
<path fill-rule="evenodd" clip-rule="evenodd" d="M24.8848 39.2872L26.927 31.6636H30.1505V36.1474H30.1717L32.3585 31.6636H35.6329L33.5907 39.2872H31.4622L32.7714 34.3971H32.7503L30.1505 39.2872H28.4462V34.3971H28.4114L27.1022 39.2872H24.8848Z" fill="white"/>
<path fill-rule="evenodd" clip-rule="evenodd" d="M36.2109 39.438L36.5009 38.3545H38.85L38.5597 39.438H36.2109Z" fill="#EE4034"/>
<path fill-rule="evenodd" clip-rule="evenodd" d="M36.58 38.0501L37.7683 33.6176H35.6328L36.1567 31.6636H42.7764L42.2529 33.6176H40.1175L38.9296 38.0489L36.58 38.0501Z" fill="#FFC325"/>
<path fill-rule="evenodd" clip-rule="evenodd" d="M41.2598 39.2872L43.3008 31.6636H45.6077L46.6486 35.7428H46.6688L47.7614 31.6636H49.894L47.8526 39.2872H45.6579L44.5276 35.1236H44.5073L43.3923 39.2872H41.2598Z" fill="white"/>
<path fill-rule="evenodd" clip-rule="evenodd" d="M53.8242 14.848C53.8242 13.1252 54.5086 11.4729 55.7269 10.2547C56.9451 9.03645 58.5974 8.35205 60.3202 8.35205C62.0431 8.35205 63.6953 9.03645 64.9136 10.2547C66.1318 11.4729 66.8162 13.1252 66.8162 14.848C66.8162 16.5709 66.1318 18.2232 64.9136 19.4414C63.6953 20.6596 62.0431 21.344 60.3202 21.344C58.5974 21.344 56.9451 20.6596 55.7269 19.4414C54.5086 18.2232 53.8242 16.5709 53.8242 14.848V14.848ZM59.9495 17.6283L63.6895 12.9529L63.0139 12.4125L59.8248 16.3976L57.5659 14.5154L57.0116 15.1806L59.9495 17.6292V17.6283Z" fill="white"/>
<rect x="0.927999" y="0.927999" width="73.7961" height="69.7455" rx="17.632" stroke="#2673D1" stroke-width="1.856"/>
</svg>
