<svg width="33" height="34" viewBox="0 0 33 34" fill="none" xmlns="http://www.w3.org/2000/svg">
<circle opacity="0.05" cx="16.5" cy="17" r="16.5" fill="#2673D1"/>
<path fill-rule="evenodd" clip-rule="evenodd" d="M19.7615 23.4167H12.805C10.2496 23.4167 8.28931 22.4937 8.84614 18.779L9.4945 13.7447C9.83775 11.8911 11.0201 11.1817 12.0574 11.1817H20.5395C21.5921 11.1817 22.7058 11.9445 23.1024 13.7447L23.7508 18.779C24.2237 22.0742 22.3168 23.4167 19.7615 23.4167Z" stroke="#2673D1" stroke-width="1.5" stroke-linecap="round" stroke-linejoin="round"/>
<path d="M19.876 10.9987C19.876 9.01027 18.2641 7.39836 16.2757 7.39836V7.39836C15.3182 7.3943 14.3985 7.77183 13.72 8.44746C13.0416 9.12308 12.6601 10.0412 12.6602 10.9987V10.9987" stroke="#2673D1" stroke-width="1.5" stroke-linecap="round" stroke-linejoin="round"/>
<path d="M18.7471 14.7515H18.709" stroke="#2673D1" stroke-width="1.5" stroke-linecap="round" stroke-linejoin="round"/>
<path d="M13.8878 14.7515H13.8496" stroke="#2673D1" stroke-width="1.5" stroke-linecap="round" stroke-linejoin="round"/>
</svg>
