<svg width="36" height="36" viewBox="0 0 36 36" fill="none" xmlns="http://www.w3.org/2000/svg">
<rect width="36" height="36" rx="12" fill="#2673D1"/>
<path d="M18.1999 23.0691C17.9065 23.0704 17.6162 23.1296 17.3456 23.2431C17.0751 23.3566 16.8295 23.5224 16.6231 23.7308C16.4166 23.9393 16.2532 24.1864 16.1422 24.458C16.0313 24.7297 15.9749 25.0205 15.9764 25.3139C15.9764 26.553 16.972 27.5587 18.1999 27.5587C18.4932 27.5572 18.7834 27.498 19.0538 27.3844C19.3242 27.2708 19.5696 27.105 19.776 26.8966C19.9823 26.6881 20.1456 26.4411 20.2565 26.1695C20.3674 25.898 20.4237 25.6072 20.4222 25.3139C20.4222 24.0737 19.4278 23.0691 18.1999 23.0691ZM13.4858 20.5527L15.0572 22.1398C15.4678 21.7233 15.9572 21.3925 16.4968 21.1668C17.0364 20.9411 17.6155 20.8248 18.2004 20.8248C18.7854 20.8248 19.3645 20.9411 19.9041 21.1668C20.4437 21.3925 20.933 21.7233 21.3437 22.1398L22.914 20.5527C22.2981 19.928 21.5642 19.4319 20.7549 19.0934C19.9456 18.7548 19.0771 18.5804 18.1999 18.5804C17.3226 18.5804 16.4541 18.7548 15.6449 19.0934C14.8356 19.4319 14.1017 19.928 13.4858 20.5527ZM10.3431 17.3763L11.9144 18.9634C12.7356 18.1306 13.7141 17.4694 14.793 17.018C15.8719 16.5667 17.0298 16.3342 18.1993 16.3342C19.3688 16.3342 20.5267 16.5667 21.6056 17.018C22.6846 17.4694 23.663 18.1306 24.4842 18.9634L26.0567 17.3763C25.0301 16.3353 23.8069 15.5086 22.4581 14.9444C21.1094 14.3802 19.6619 14.0897 18.1999 14.0897C16.7378 14.0897 15.2904 14.3802 13.9416 14.9444C12.5928 15.5086 11.3696 16.3353 10.3431 17.3763ZM7.19922 14.2021L8.77058 15.7892C10.0025 14.5398 11.4704 13.5477 13.089 12.8705C14.7076 12.1933 16.4447 11.8446 18.1993 11.8446C19.9539 11.8446 21.691 12.1933 23.3096 12.8705C24.9283 13.5477 26.3962 14.5398 27.6281 15.7892L29.1994 14.2021C27.7622 12.7445 26.0497 11.587 24.1613 10.797C22.2729 10.0069 20.2463 9.6001 18.1993 9.6001C16.1523 9.6001 14.1257 10.0069 12.2373 10.797C10.3489 11.587 8.63639 12.7445 7.19922 14.2021Z" fill="white"/>
</svg>
